<svg width="540" height="675" viewBox="0 0 540 675" fill="none" xmlns="http://www.w3.org/2000/svg">
<mask id="path-1-inside-1_117_651" fill="white">
<path d="M472.5 67.5H540V135H337.5V202.5H405V270H472.5V337.5H540V607.5H472.5V675H67.5V607.5H0V337.5H67.5V270H135V202.5H0V135H67.5V67.5H135V135H202.5V67.5H337.5V0H472.5V67.5ZM202.5 540H270V405H202.5V540ZM405 540H472.5V405H405V540Z"/>
</mask>
<path d="M472.5 67.5H468.5V71.5H472.5V67.5ZM540 67.5H544V63.5H540V67.5ZM540 135V139H544V135H540ZM337.5 135V131H333.5V135H337.5ZM337.5 202.5H333.5V206.5H337.5V202.5ZM405 202.5H409V198.5H405V202.5ZM405 270H401V274H405V270ZM472.5 270H476.5V266H472.5V270ZM472.5 337.5H468.5V341.5H472.5V337.5ZM540 337.5H544V333.5H540V337.5ZM540 607.5V611.5H544V607.5H540ZM472.5 607.5V603.5H468.5V607.5H472.5ZM472.5 675V679H476.5V675H472.5ZM67.5 675H63.5V679H67.5V675ZM67.5 607.5H71.5V603.5H67.5V607.5ZM0 607.5H-4V611.5H0V607.5ZM0 337.5V333.5H-4V337.5H0ZM67.5 337.5V341.5H71.5V337.5H67.5ZM67.5 270V266H63.5V270H67.5ZM135 270V274H139V270H135ZM135 202.5H139V198.5H135V202.5ZM0 202.5H-4V206.5H0V202.5ZM0 135V131H-4V135H0ZM67.5 135V139H71.5V135H67.5ZM67.5 67.5V63.5H63.5V67.5H67.5ZM135 67.5H139V63.5H135V67.5ZM135 135H131V139H135V135ZM202.5 135V139H206.5V135H202.5ZM202.5 67.5V63.5H198.5V67.5H202.5ZM337.5 67.5V71.5H341.5V67.5H337.5ZM337.5 0V-4H333.5V0H337.5ZM472.5 0H476.5V-4H472.5V0ZM202.5 540H198.5V544H202.5V540ZM270 540V544H274V540H270ZM270 405H274V401H270V405ZM202.5 405V401H198.5V405H202.5ZM405 540H401V544H405V540ZM472.5 540V544H476.5V540H472.5ZM472.5 405H476.5V401H472.5V405ZM405 405V401H401V405H405ZM472.5 67.5V71.5H540V67.5V63.5H472.5V67.5ZM540 67.5H536V135H540H544V67.5H540ZM540 135V131H337.5V135V139H540V135ZM337.5 135H333.5V202.5H337.5H341.5V135H337.5ZM337.5 202.5V206.5H405V202.5V198.5H337.5V202.5ZM405 202.5H401V270H405H409V202.5H405ZM405 270V274H472.5V270V266H405V270ZM472.5 270H468.5V337.5H472.5H476.5V270H472.5ZM472.5 337.5V341.5H540V337.5V333.5H472.5V337.5ZM540 337.5H536V607.5H540H544V337.5H540ZM540 607.5V603.5H472.5V607.5V611.5H540V607.5ZM472.5 607.5H468.5V675H472.5H476.5V607.5H472.5ZM472.5 675V671H67.5V675V679H472.5V675ZM67.5 675H71.5V607.5H67.5H63.5V675H67.5ZM67.5 607.5V603.5H0V607.5V611.5H67.5V607.5ZM0 607.5H4V337.5H0H-4V607.5H0ZM0 337.5V341.5H67.5V337.5V333.5H0V337.5ZM67.5 337.5H71.5V270H67.5H63.5V337.5H67.5ZM67.5 270V274H135V270V266H67.5V270ZM135 270H139V202.5H135H131V270H135ZM135 202.5V198.5H0V202.5V206.5H135V202.5ZM0 202.5H4V135H0H-4V202.5H0ZM0 135V139H67.5V135V131H0V135ZM67.5 135H71.5V67.5H67.5H63.5V135H67.5ZM67.5 67.5V71.5H135V67.5V63.5H67.5V67.5ZM135 67.5H131V135H135H139V67.5H135ZM135 135V139H202.5V135V131H135V135ZM202.5 135H206.5V67.5H202.5H198.5V135H202.5ZM202.5 67.5V71.5H337.5V67.5V63.5H202.5V67.5ZM337.5 67.5H341.5V0H337.5H333.5V67.5H337.5ZM337.5 0V4H472.5V0V-4H337.5V0ZM472.5 0H468.5V67.5H472.5H476.5V0H472.5ZM202.5 540V544H270V540V536H202.5V540ZM270 540H274V405H270H266V540H270ZM270 405V401H202.5V405V409H270V405ZM202.5 405H198.5V540H202.5H206.5V405H202.5ZM405 540V544H472.5V540V536H405V540ZM472.5 540H476.5V405H472.5H468.5V540H472.5ZM472.5 405V401H405V405V409H472.5V405ZM405 405H401V540H405H409V405H405Z" fill="white" mask="url(#path-1-inside-1_117_651)"/>
</svg>
