<svg width="540" height="675" viewBox="0 0 540 675" fill="none" xmlns="http://www.w3.org/2000/svg">
<rect width="67.5" height="67.5" transform="translate(135 202.5)" fill="#BCE600"/>
<rect width="67.5" height="67.5" transform="translate(202.5 202.5)" fill="#D0FF00"/>
<rect width="67.5" height="67.5" transform="translate(270 202.5)" fill="#D0FF00"/>
<rect width="67.5" height="67.5" transform="translate(337.5 202.5)" fill="#D0FF00"/>
<rect width="67.5" height="67.5" transform="translate(405 540)" fill="#D0FF00"/>
<rect width="67.5" height="67.5" transform="translate(472.5 337.5)" fill="#D0FF00"/>
<rect width="67.5" height="67.5" transform="translate(0 337.5)" fill="#BCE600"/>
<rect width="67.5" height="67.5" transform="translate(67.5 270)" fill="#BCE600"/>
<rect width="67.5" height="67.5" transform="translate(135 270)" fill="#D0FF00"/>
<rect width="67.5" height="67.5" transform="translate(202.5 270)" fill="#D0FF00"/>
<rect width="67.5" height="67.5" transform="translate(270 270)" fill="#D0FF00"/>
<rect width="67.5" height="67.5" transform="translate(337.5 270)" fill="#D0FF00"/>
<rect width="67.5" height="67.5" transform="translate(405 270)" fill="#D0FF00"/>
<rect width="67.5" height="67.5" transform="translate(405 607.5)" fill="#D0FF00"/>
<rect width="67.5" height="67.5" transform="translate(0 405)" fill="#BCE600"/>
<rect width="67.5" height="67.5" transform="translate(67.5 405)" fill="#D0FF00"/>
<rect width="67.5" height="67.5" transform="translate(135 405)" fill="#D0FF00"/>
<rect width="67.5" height="67.5" transform="translate(202.5 405)" fill="#14432E"/>
<rect width="67.5" height="67.5" transform="translate(270 405)" fill="#D0FF00"/>
<rect width="67.5" height="67.5" transform="translate(337.5 405)" fill="#D0FF00"/>
<rect width="67.5" height="67.5" transform="translate(405 405)" fill="#14432E"/>
<rect width="67.5" height="67.5" transform="translate(472.5 405)" fill="#D0FF00"/>
<rect width="67.5" height="67.5" transform="translate(0 472.5)" fill="#BCE600"/>
<rect width="67.5" height="67.5" transform="translate(0 540)" fill="#BCE600"/>
<rect width="67.5" height="67.5" transform="translate(67.5 472.5)" fill="#D0FF00"/>
<rect width="67.5" height="67.5" transform="translate(135 472.5)" fill="#D0FF00"/>
<rect width="67.5" height="67.5" transform="translate(270 472.5)" fill="#D0FF00"/>
<rect width="67.5" height="67.5" transform="translate(202.5 472.5)" fill="#14432E"/>
<rect width="67.5" height="67.5" transform="translate(337.5 472.5)" fill="#D0FF00"/>
<rect width="67.5" height="67.5" transform="translate(405 472.5)" fill="#14432E"/>
<rect width="67.5" height="67.5" transform="translate(472.5 472.5)" fill="#D0FF00"/>
<rect width="67.5" height="67.5" transform="translate(472.5 540)" fill="#D0FF00"/>
<rect width="67.5" height="67.5" transform="translate(337.5 540)" fill="#D0FF00"/>
<rect width="67.5" height="67.5" transform="translate(67.5 337.5)" fill="#D0FF00"/>
<rect width="67.5" height="67.5" transform="translate(135 337.5)" fill="#D0FF00"/>
<rect width="67.5" height="67.5" transform="translate(202.5 337.5)" fill="#D0FF00"/>
<rect width="67.5" height="67.5" transform="translate(270 337.5)" fill="#D0FF00"/>
<rect width="67.5" height="67.5" transform="translate(337.5 337.5)" fill="#D0FF00"/>
<rect width="67.5" height="67.5" transform="translate(67.5 540)" fill="#BCE600"/>
<rect width="67.5" height="67.5" transform="translate(67.5 607.5)" fill="#BCE600"/>
<rect width="67.5" height="67.5" transform="translate(405 337.5)" fill="#D0FF00"/>
<rect width="67.5" height="67.5" transform="translate(135 540)" fill="#D0FF00"/>
<rect width="67.5" height="67.5" transform="translate(202.5 540)" fill="#D0FF00"/>
<rect width="67.5" height="67.5" transform="translate(135 607.5)" fill="#D0FF00"/>
<rect width="67.5" height="67.5" transform="translate(202.5 607.5)" fill="#D0FF00"/>
<rect width="67.5" height="67.5" transform="translate(270 540)" fill="#D0FF00"/>
<rect width="67.5" height="67.5" transform="translate(270 607.5)" fill="#D0FF00"/>
<rect width="67.5" height="67.5" transform="translate(337.5 607.5)" fill="#D0FF00"/>
<rect width="67.5" height="67.5" transform="translate(202.5 135)" fill="#945F2E"/>
<rect width="67.5" height="67.5" transform="translate(270 135)" fill="#14432E"/>
<rect width="67.5" height="67.5" transform="translate(337.5 67.5)" fill="#14432E"/>
<rect width="67.5" height="67.5" transform="translate(337.5)" fill="#14432E"/>
<rect width="67.5" height="67.5" transform="translate(405)" fill="#14432E"/>
<rect width="67.5" height="67.5" transform="translate(270 67.5)" fill="#14432E"/>
<rect width="67.5" height="67.5" transform="translate(202.5 67.5)" fill="#DFC552"/>
<rect width="67.5" height="67.5" transform="translate(405 67.5)" fill="#14432E"/>
<rect width="67.5" height="67.5" transform="translate(67.5 135)" fill="#14432E"/>
<rect width="67.5" height="67.5" transform="translate(135 135)" fill="#14432E"/>
<rect width="67.5" height="67.5" transform="translate(472.5 67.5)" fill="#14432E"/>
<rect width="67.5" height="67.5" transform="translate(67.5 67.5)" fill="#14432E"/>
<rect width="67.5" height="67.5" transform="translate(0 135)" fill="#14432E"/>
</svg>
